<svg xmlns="http://www.w3.org/2000/svg" xmlns:xlink="http://www.w3.org/1999/xlink" version="1.1" class="" pagealignment="none" x="0px" y="0px" width="12px" height="12px" viewBox="0 0 12 12" enable-background="new 0 0 12 12" xml:space="preserve"><defs></defs><g type="LAYER" name="workspace" id="workspace" locked="true"></g><g type="LAYER" name="Layer 01" id="Layer 01"><path transform="matrix(1 0 0 1 3.4730021598271366 0.49244060475161455)" width="5.235421166306694" height="6.946004319654428" stroke-miterlimit="3" stroke="#000000" fill="#1D1D1D" d="M0,0 L5.235421166306694,0 L5.235421166306694,6.946004319654428 L0,6.946004319654428 L0,0 Z "></path><path transform="matrix(1 0 0 1 4.794816414686818 7.386609071274297)" height="4.561555075593951" stroke-miterlimit="3" stroke="#000000" fill="#1D1D1D" d="M0,0 L0,4.561555075593951 "></path><path transform="matrix(1 0 0 1 7.619870410367169 7.360691144708399)" height="4.561555075593958" stroke-miterlimit="3" stroke="#000000" fill="#1D1D1D" d="M0,0 L0,4.561555075593958 "></path><path transform="matrix(1 0 0 1 7.775377969762418 0.9330453563714907)" width="0.7775377969762154" height="6.012958963282937" stroke-width="0.674221878949887" stroke-miterlimit="3" stroke="none" fill="#969696" d="M-5.329070518200751e-15,0 L0.7775377969762101,0 L0.7775377969762101,6.012958963282937 L-5.329070518200751e-15,6.012958963282937 L-5.329070518200751e-15,0 Z "></path></g></svg>