<?xml version="1.0" encoding="UTF-8" ?>
<!DOCTYPE svg PUBLIC "-//W3C//DTD SVG 1.1//EN" "http://www.w3.org/Graphics/SVG/1.1/DTD/svg11.dtd">
<svg width="128pt" height="128pt" viewBox="0 0 128 128" version="1.1" xmlns="http://www.w3.org/2000/svg">
<path fill="#ffffff" d=" M 0.00 0.00 L 125.61 0.00 C 123.84 0.62 122.42 1.85 121.14 3.18 C 115.56 8.87 109.88 14.46 104.26 20.12 C 100.11 16.46 96.84 10.91 91.02 9.85 C 87.13 9.05 83.02 10.38 80.24 13.19 C 75.67 17.65 71.23 22.23 66.67 26.70 C 62.22 30.79 62.28 37.65 57.83 41.76 C 51.58 47.87 45.66 54.32 39.16 60.17 C 35.69 63.65 29.96 62.94 26.70 66.67 C 22.08 71.43 17.25 75.97 12.71 80.79 C 8.90 84.82 8.56 91.66 12.07 95.98 C 14.50 98.97 17.44 101.50 20.12 104.26 C 15.45 108.90 10.83 113.57 6.16 118.20 C 3.94 120.43 1.45 122.49 0.00 125.35 L 0.00 0.00 Z" />
<path fill="#000000" d=" M 125.61 0.00 L 126.30 0.00 C 126.06 1.40 126.62 1.95 128.00 1.64 L 128.00 2.67 C 126.52 5.52 124.03 7.61 121.80 9.84 C 117.14 14.46 112.53 19.12 107.88 23.74 C 111.55 27.89 117.07 31.17 118.15 36.98 C 118.95 40.87 117.62 45.00 114.80 47.77 C 110.15 52.50 105.43 57.17 100.73 61.86 C 97.85 64.79 93.27 64.48 90.08 66.92 C 85.68 70.17 82.15 74.41 78.22 78.17 C 74.45 82.10 70.25 85.63 66.96 89.99 C 64.40 93.19 64.81 97.89 61.80 100.80 C 57.11 105.48 52.46 110.20 47.72 114.83 C 43.72 119.00 36.54 119.63 32.03 115.94 C 29.03 113.51 26.51 110.56 23.74 107.88 C 17.96 113.69 12.13 119.46 6.38 125.30 C 5.26 126.48 3.92 127.41 2.39 128.00 L 1.70 128.00 C 1.94 126.59 1.37 126.05 0.00 126.36 L 0.00 125.35 C 1.45 122.49 3.94 120.43 6.16 118.20 C 10.83 113.57 15.45 108.90 20.12 104.26 C 17.44 101.50 14.50 98.97 12.07 95.98 C 8.56 91.66 8.90 84.82 12.71 80.79 C 17.25 75.97 22.08 71.43 26.70 66.67 C 29.96 62.94 35.69 63.65 39.16 60.17 C 45.66 54.32 51.58 47.87 57.83 41.76 C 62.28 37.65 62.22 30.79 66.67 26.70 C 71.23 22.23 75.67 17.65 80.24 13.19 C 83.02 10.38 87.13 9.05 91.02 9.85 C 96.84 10.91 100.11 16.46 104.26 20.12 C 109.88 14.46 115.56 8.87 121.14 3.18 C 122.42 1.85 123.84 0.62 125.61 0.00 Z" />
<path fill="#ffffff" d=" M 126.30 0.00 L 128.00 0.00 L 128.00 1.64 C 126.62 1.95 126.06 1.40 126.30 0.00 Z" />
<path fill="#ffffff" d=" M 121.80 9.84 C 124.03 7.61 126.52 5.52 128.00 2.67 L 128.00 128.00 L 2.39 128.00 C 3.92 127.41 5.26 126.48 6.38 125.30 C 12.13 119.46 17.96 113.69 23.74 107.88 C 26.51 110.56 29.03 113.51 32.03 115.94 C 36.54 119.63 43.72 119.00 47.72 114.83 C 52.46 110.20 57.11 105.48 61.80 100.80 C 64.81 97.89 64.40 93.19 66.96 89.99 C 70.25 85.63 74.45 82.10 78.22 78.17 C 82.15 74.41 85.68 70.17 90.08 66.92 C 93.27 64.48 97.85 64.79 100.73 61.86 C 105.43 57.17 110.15 52.50 114.80 47.77 C 117.62 45.00 118.95 40.87 118.15 36.98 C 117.07 31.17 111.55 27.89 107.88 23.74 C 112.53 19.12 117.14 14.46 121.80 9.84 Z" />
<path fill="#ffffff" d=" M 80.49 20.16 C 82.70 18.09 84.69 15.16 87.95 14.80 C 90.47 14.38 92.80 15.77 94.46 17.54 C 99.62 22.70 104.76 27.88 109.95 33.01 C 111.63 34.65 113.33 36.64 113.26 39.15 C 113.37 42.82 110.13 45.13 107.86 47.50 C 98.72 38.40 89.60 29.29 80.49 20.16 Z" />
<path fill="#ffffff" d=" M 68.89 31.99 C 71.26 28.99 74.25 26.55 76.87 23.78 C 85.99 32.89 95.11 42.01 104.22 51.13 C 101.61 53.63 99.24 56.40 96.49 58.74 C 92.91 60.18 88.94 60.87 85.97 63.53 C 78.88 56.23 71.59 49.13 64.44 41.89 C 66.18 38.71 67.17 35.17 68.89 31.99 Z" />
<path fill="#ffffff" d=" M 50.52 56.32 C 54.03 52.81 57.54 49.30 61.06 45.79 C 68.13 52.82 75.15 59.91 82.24 66.92 C 78.70 70.46 75.14 73.98 71.64 77.55 C 64.67 70.40 57.54 63.42 50.52 56.32 Z" />
<path fill="#ffffff" d=" M 40.55 65.54 C 42.86 63.91 44.91 61.95 46.91 59.98 C 53.96 67.01 60.98 74.06 68.03 81.08 C 64.57 84.60 60.89 88.38 59.80 93.38 C 59.44 95.95 57.75 97.85 55.90 99.53 C 46.74 90.40 37.60 81.25 28.49 72.09 C 31.29 67.88 36.87 68.48 40.55 65.54 Z" />
<path fill="#ffffff" d=" M 16.37 84.42 C 19.04 81.38 22.08 78.68 24.88 75.76 C 34.00 84.88 43.11 94.01 52.22 103.13 C 49.32 105.92 46.64 108.93 43.62 111.60 C 40.96 114.08 36.49 113.63 34.10 110.99 C 28.40 105.33 22.72 99.64 17.05 93.94 C 14.39 91.56 13.91 87.11 16.37 84.42 Z" />
<path fill="#ffffff" d=" M 0.00 126.36 C 1.37 126.05 1.94 126.59 1.70 128.00 L 0.00 128.00 L 0.00 126.36 Z" />
</svg>
